<?xml version="1.0" encoding="UTF-8"?>
<svg xmlns="http://www.w3.org/2000/svg" width="640" height="420" viewBox="0 0 640 420" role="img" aria-labelledby="portrait-title">
  <title id="portrait-title">Rillehopper front three-quarter model portrait</title>
  <defs>
    <filter id="portrait-glow" x="-80%" y="-80%" width="260%" height="260%"><feGaussianBlur stdDeviation="4" result="blur"/><feMerge><feMergeNode in="blur"/><feMergeNode in="SourceGraphic"/></feMerge></filter>
    <filter id="portrait-shadow" x="-40%" y="-80%" width="180%" height="260%"><feGaussianBlur stdDeviation="8"/></filter>
  </defs>
  <ellipse cx="347.62" cy="354.48" rx="259.51" ry="13" fill="#0c120f" opacity=".32" filter="url(#portrait-shadow)"/>

  <g><polygon points="375.81,236.57 349.34,227.17 302.71,232.50 329.17,241.90" fill="#808a86" stroke="#1c211e" stroke-opacity=".68" stroke-width="1.35" stroke-linejoin="round" vector-effect="non-scaling-stroke"/><polygon points="373.44,259.93 351.64,252.19 315.98,256.27 337.78,264.00" fill="#cbd5c5" stroke="#1c211e" stroke-opacity=".68" stroke-width="1.35" stroke-linejoin="round" vector-effect="non-scaling-stroke"/><polygon points="329.17,272.79 329.17,241.90 302.71,232.50 302.71,263.40" fill="#666f6c" stroke="#1c211e" stroke-opacity=".68" stroke-width="1.35" stroke-linejoin="round" vector-effect="non-scaling-stroke"/><polygon points="337.78,297.99 337.78,264.00 315.98,256.27 315.98,290.25" fill="#a4ac9f" stroke="#1c211e" stroke-opacity=".68" stroke-width="1.35" stroke-linejoin="round" vector-effect="non-scaling-stroke"/><polygon points="405.24,293.23 361.65,277.76 301.30,284.66 344.89,300.13" fill="#3e474d" stroke="#1c211e" stroke-opacity=".68" stroke-width="1.35" stroke-linejoin="round" vector-effect="non-scaling-stroke"/><polygon points="369.54,165.86 349.30,158.67 313.64,162.75 333.88,169.93" fill="#92a191" stroke="#1c211e" stroke-opacity=".68" stroke-width="1.35" stroke-linejoin="round" vector-effect="non-scaling-stroke"/><polygon points="333.88,259.53 333.88,169.93 313.64,162.75 313.64,252.35" fill="#758174" stroke="#1c211e" stroke-opacity=".68" stroke-width="1.35" stroke-linejoin="round" vector-effect="non-scaling-stroke"/><polygon points="375.81,267.46 375.81,236.57 329.17,241.90 329.17,272.79" fill="#798380" stroke="#1c211e" stroke-opacity=".68" stroke-width="1.35" stroke-linejoin="round" vector-effect="non-scaling-stroke"/><polygon points="373.44,293.91 373.44,259.93 337.78,264.00 337.78,297.99" fill="#c1cabc" stroke="#1c211e" stroke-opacity=".68" stroke-width="1.35" stroke-linejoin="round" vector-effect="non-scaling-stroke"/><polygon points="369.54,255.45 369.54,165.86 333.88,169.93 333.88,259.53" fill="#8b998a" stroke="#1c211e" stroke-opacity=".68" stroke-width="1.35" stroke-linejoin="round" vector-effect="non-scaling-stroke"/><polygon points="392.79,151.32 356.98,138.61 296.63,145.51 332.44,158.22" fill="#92a191" stroke="#1c211e" stroke-opacity=".68" stroke-width="1.35" stroke-linejoin="round" vector-effect="non-scaling-stroke"/><polygon points="344.89,324.85 344.89,300.13 301.30,284.66 301.30,309.37" fill="#30373d" stroke="#1c211e" stroke-opacity=".68" stroke-width="1.35" stroke-linejoin="round" vector-effect="non-scaling-stroke"/><polygon points="332.44,216.92 332.44,158.22 296.63,145.51 296.63,204.21" fill="#758174" stroke="#1c211e" stroke-opacity=".68" stroke-width="1.35" stroke-linejoin="round" vector-effect="non-scaling-stroke"/><polygon points="402.60,299.47 391.70,295.60 372.50,297.80 383.39,301.67" fill="#cbd5c5" stroke="#1c211e" stroke-opacity=".68" stroke-width="1.35" stroke-linejoin="round" vector-effect="non-scaling-stroke"/><polygon points="383.39,318.66 383.39,301.67 372.50,297.80 372.50,314.79" fill="#a4ac9f" stroke="#1c211e" stroke-opacity=".68" stroke-width="1.35" stroke-linejoin="round" vector-effect="non-scaling-stroke"/><polygon points="402.60,316.47 402.60,299.47 383.39,301.67 383.39,318.66" fill="#c1cabc" stroke="#1c211e" stroke-opacity=".68" stroke-width="1.35" stroke-linejoin="round" vector-effect="non-scaling-stroke"/><polygon points="405.24,317.95 405.24,293.23 344.89,300.13 344.89,324.85" fill="#3b4349" stroke="#1c211e" stroke-opacity=".68" stroke-width="1.35" stroke-linejoin="round" vector-effect="non-scaling-stroke"/><polygon points="392.79,210.02 392.79,151.32 332.44,158.22 332.44,216.92" fill="#8b998a" stroke="#1c211e" stroke-opacity=".68" stroke-width="1.35" stroke-linejoin="round" vector-effect="non-scaling-stroke"/><polygon points="372.97,302.86 362.07,298.99 342.87,301.19 353.77,305.06" fill="#cbd5c5" stroke="#1c211e" stroke-opacity=".68" stroke-width="1.35" stroke-linejoin="round" vector-effect="non-scaling-stroke"/><polygon points="353.77,322.05 353.77,305.06 342.87,301.19 342.87,318.18" fill="#a4ac9f" stroke="#1c211e" stroke-opacity=".68" stroke-width="1.35" stroke-linejoin="round" vector-effect="non-scaling-stroke"/><polygon points="372.97,319.85 372.97,302.86 353.77,305.06 353.77,322.05" fill="#c1cabc" stroke="#1c211e" stroke-opacity=".68" stroke-width="1.35" stroke-linejoin="round" vector-effect="non-scaling-stroke"/><polygon points="235.91,252.56 209.44,243.17 162.80,248.50 189.27,257.89" fill="#808a86" stroke="#1c211e" stroke-opacity=".68" stroke-width="1.35" stroke-linejoin="round" vector-effect="non-scaling-stroke"/><polygon points="409.73,79.45 342.78,55.69 139.78,78.90 206.73,102.66" fill="#92a191" stroke="#1c211e" stroke-opacity=".68" stroke-width="1.35" stroke-linejoin="round" vector-effect="non-scaling-stroke"/><polygon points="233.53,275.92 211.74,268.19 176.07,272.26 197.87,280.00" fill="#cbd5c5" stroke="#1c211e" stroke-opacity=".68" stroke-width="1.35" stroke-linejoin="round" vector-effect="non-scaling-stroke"/><polygon points="189.27,288.79 189.27,257.89 162.80,248.50 162.80,279.40" fill="#666f6c" stroke="#1c211e" stroke-opacity=".68" stroke-width="1.35" stroke-linejoin="round" vector-effect="non-scaling-stroke"/><polygon points="197.87,313.99 197.87,280.00 176.07,272.26 176.07,306.25" fill="#a4ac9f" stroke="#1c211e" stroke-opacity=".68" stroke-width="1.35" stroke-linejoin="round" vector-effect="non-scaling-stroke"/><polygon points="265.34,309.23 221.74,293.75 161.39,300.65 204.99,316.13" fill="#3e474d" stroke="#1c211e" stroke-opacity=".68" stroke-width="1.35" stroke-linejoin="round" vector-effect="non-scaling-stroke"/><polygon points="333.12,30.08 316.00,24.00 292.68,26.67 309.81,32.74" fill="#cbd5c5" stroke="#1c211e" stroke-opacity=".68" stroke-width="1.35" stroke-linejoin="round" vector-effect="non-scaling-stroke"/><polygon points="372.83,34.52 355.70,28.44 332.38,31.10 349.51,37.18" fill="#cbd5c5" stroke="#1c211e" stroke-opacity=".68" stroke-width="1.35" stroke-linejoin="round" vector-effect="non-scaling-stroke"/><polygon points="229.64,181.85 209.40,174.67 173.74,178.75 193.98,185.93" fill="#92a191" stroke="#1c211e" stroke-opacity=".68" stroke-width="1.35" stroke-linejoin="round" vector-effect="non-scaling-stroke"/><polygon points="193.98,275.53 193.98,185.93 173.74,178.75 173.74,268.34" fill="#758174" stroke="#1c211e" stroke-opacity=".68" stroke-width="1.35" stroke-linejoin="round" vector-effect="non-scaling-stroke"/><polygon points="235.91,283.46 235.91,252.56 189.27,257.89 189.27,288.79" fill="#798380" stroke="#1c211e" stroke-opacity=".68" stroke-width="1.35" stroke-linejoin="round" vector-effect="non-scaling-stroke"/><polygon points="309.81,49.74 309.81,32.74 292.68,26.67 292.68,43.66" fill="#a4ac9f" stroke="#1c211e" stroke-opacity=".68" stroke-width="1.35" stroke-linejoin="round" vector-effect="non-scaling-stroke"/><polygon points="233.53,309.91 233.53,275.92 197.87,280.00 197.87,313.99" fill="#c1cabc" stroke="#1c211e" stroke-opacity=".68" stroke-width="1.35" stroke-linejoin="round" vector-effect="non-scaling-stroke"/><polygon points="349.51,46.45 349.51,37.18 332.38,31.10 332.38,40.37" fill="#a4ac9f" stroke="#1c211e" stroke-opacity=".68" stroke-width="1.35" stroke-linejoin="round" vector-effect="non-scaling-stroke"/><polygon points="229.64,271.45 229.64,181.85 193.98,185.93 193.98,275.53" fill="#8b998a" stroke="#1c211e" stroke-opacity=".68" stroke-width="1.35" stroke-linejoin="round" vector-effect="non-scaling-stroke"/><polygon points="252.88,167.32 217.07,154.61 156.72,161.51 192.53,174.22" fill="#92a191" stroke="#1c211e" stroke-opacity=".68" stroke-width="1.35" stroke-linejoin="round" vector-effect="non-scaling-stroke"/><polygon points="333.12,47.07 333.12,30.08 309.81,32.74 309.81,49.74" fill="#c1cabc" stroke="#1c211e" stroke-opacity=".68" stroke-width="1.35" stroke-linejoin="round" vector-effect="non-scaling-stroke"/><polygon points="204.99,340.84 204.99,316.13 161.39,300.65 161.39,325.37" fill="#30373d" stroke="#1c211e" stroke-opacity=".68" stroke-width="1.35" stroke-linejoin="round" vector-effect="non-scaling-stroke"/><polygon points="372.83,43.78 372.83,34.52 349.51,37.18 349.51,46.45" fill="#c1cabc" stroke="#1c211e" stroke-opacity=".68" stroke-width="1.35" stroke-linejoin="round" vector-effect="non-scaling-stroke"/><polygon points="388.90,46.05 331.29,25.60 188.64,41.91 246.25,62.36" fill="#aed1ce" stroke="#1c211e" stroke-opacity=".68" stroke-width="1.35" stroke-linejoin="round" vector-effect="non-scaling-stroke"/><polygon points="192.53,232.92 192.53,174.22 156.72,161.51 156.72,220.21" fill="#758174" stroke="#1c211e" stroke-opacity=".68" stroke-width="1.35" stroke-linejoin="round" vector-effect="non-scaling-stroke"/><polygon points="262.69,315.47 251.79,311.60 232.59,313.80 243.49,317.66" fill="#cbd5c5" stroke="#1c211e" stroke-opacity=".68" stroke-width="1.35" stroke-linejoin="round" vector-effect="non-scaling-stroke"/><polygon points="243.49,334.66 243.49,317.66 232.59,313.80 232.59,330.79" fill="#a4ac9f" stroke="#1c211e" stroke-opacity=".68" stroke-width="1.35" stroke-linejoin="round" vector-effect="non-scaling-stroke"/><polygon points="262.69,332.46 262.69,315.47 243.49,317.66 243.49,334.66" fill="#c1cabc" stroke="#1c211e" stroke-opacity=".68" stroke-width="1.35" stroke-linejoin="round" vector-effect="non-scaling-stroke"/><polygon points="275.52,36.67 258.39,30.59 235.07,33.25 252.20,39.33" fill="#cbd5c5" stroke="#1c211e" stroke-opacity=".68" stroke-width="1.35" stroke-linejoin="round" vector-effect="non-scaling-stroke"/><polygon points="206.73,235.51 206.73,102.66 139.78,78.90 139.78,211.75" fill="#758174" stroke="#1c211e" stroke-opacity=".68" stroke-width="1.35" stroke-linejoin="round" vector-effect="non-scaling-stroke"/><polygon points="409.73,212.30 409.73,79.45 206.73,102.66 206.73,235.51" fill="#8b998a" stroke="#1c211e" stroke-opacity=".68" stroke-width="1.35" stroke-linejoin="round" vector-effect="non-scaling-stroke"/><polygon points="265.34,333.94 265.34,309.23 204.99,316.13 204.99,340.84" fill="#3b4349" stroke="#1c211e" stroke-opacity=".68" stroke-width="1.35" stroke-linejoin="round" vector-effect="non-scaling-stroke"/><polygon points="315.22,41.10 298.09,35.02 274.77,37.69 291.90,43.77" fill="#cbd5c5" stroke="#1c211e" stroke-opacity=".68" stroke-width="1.35" stroke-linejoin="round" vector-effect="non-scaling-stroke"/><polygon points="252.20,56.32 252.20,39.33 235.07,33.25 235.07,50.25" fill="#a4ac9f" stroke="#1c211e" stroke-opacity=".68" stroke-width="1.35" stroke-linejoin="round" vector-effect="non-scaling-stroke"/><polygon points="252.88,226.02 252.88,167.32 192.53,174.22 192.53,232.92" fill="#8b998a" stroke="#1c211e" stroke-opacity=".68" stroke-width="1.35" stroke-linejoin="round" vector-effect="non-scaling-stroke"/><polygon points="291.90,53.04 291.90,43.77 274.77,37.69 274.77,46.96" fill="#a4ac9f" stroke="#1c211e" stroke-opacity=".68" stroke-width="1.35" stroke-linejoin="round" vector-effect="non-scaling-stroke"/><polygon points="233.07,318.86 222.17,314.99 202.96,317.18 213.86,321.05" fill="#cbd5c5" stroke="#1c211e" stroke-opacity=".68" stroke-width="1.35" stroke-linejoin="round" vector-effect="non-scaling-stroke"/><polygon points="213.86,338.04 213.86,321.05 202.96,317.18 202.96,334.18" fill="#a4ac9f" stroke="#1c211e" stroke-opacity=".68" stroke-width="1.35" stroke-linejoin="round" vector-effect="non-scaling-stroke"/><polygon points="275.52,53.66 275.52,36.67 252.20,39.33 252.20,56.32" fill="#c1cabc" stroke="#1c211e" stroke-opacity=".68" stroke-width="1.35" stroke-linejoin="round" vector-effect="non-scaling-stroke"/><polygon points="233.07,335.85 233.07,318.86 213.86,321.05 213.86,338.04" fill="#c1cabc" stroke="#1c211e" stroke-opacity=".68" stroke-width="1.35" stroke-linejoin="round" vector-effect="non-scaling-stroke"/><polygon points="315.22,50.37 315.22,41.10 291.90,43.77 291.90,53.04" fill="#c1cabc" stroke="#1c211e" stroke-opacity=".68" stroke-width="1.35" stroke-linejoin="round" vector-effect="non-scaling-stroke"/><polygon points="450.40,197.64 341.41,158.96 198.76,175.27 307.75,213.95" fill="#cbd5c5" stroke="#1c211e" stroke-opacity=".68" stroke-width="1.35" stroke-linejoin="round" vector-effect="non-scaling-stroke"/><polygon points="246.25,83.99 246.25,62.36 188.64,41.91 188.64,63.54" fill="#8ca8a6" stroke="#1c211e" stroke-opacity=".68" stroke-width="1.35" stroke-linejoin="round" vector-effect="non-scaling-stroke"/><polygon points="257.61,47.69 240.48,41.61 217.17,44.28 234.29,50.36" fill="#cbd5c5" stroke="#1c211e" stroke-opacity=".68" stroke-width="1.35" stroke-linejoin="round" vector-effect="non-scaling-stroke"/><polygon points="469.23,269.72 442.76,260.33 396.12,265.66 422.59,275.06" fill="#808a86" stroke="#1c211e" stroke-opacity=".68" stroke-width="1.35" stroke-linejoin="round" vector-effect="non-scaling-stroke"/><polygon points="388.90,67.68 388.90,46.05 246.25,62.36 246.25,83.99" fill="#a6c7c4" stroke="#1c211e" stroke-opacity=".68" stroke-width="1.35" stroke-linejoin="round" vector-effect="non-scaling-stroke"/><polygon points="234.29,59.62 234.29,50.36 217.17,44.28 217.17,53.55" fill="#a4ac9f" stroke="#1c211e" stroke-opacity=".68" stroke-width="1.35" stroke-linejoin="round" vector-effect="non-scaling-stroke"/><polygon points="466.85,293.08 445.06,285.35 409.40,289.42 431.19,297.16" fill="#cbd5c5" stroke="#1c211e" stroke-opacity=".68" stroke-width="1.35" stroke-linejoin="round" vector-effect="non-scaling-stroke"/><polygon points="483.83,85.80 351.49,38.83 162.21,60.47 294.55,107.44" fill="#92a191" stroke="#1c211e" stroke-opacity=".68" stroke-width="1.35" stroke-linejoin="round" vector-effect="non-scaling-stroke"/><polygon points="422.59,305.95 422.59,275.06 396.12,265.66 396.12,296.56" fill="#666f6c" stroke="#1c211e" stroke-opacity=".68" stroke-width="1.35" stroke-linejoin="round" vector-effect="non-scaling-stroke"/><polygon points="431.19,331.15 431.19,297.16 409.40,289.42 409.40,323.41" fill="#a4ac9f" stroke="#1c211e" stroke-opacity=".68" stroke-width="1.35" stroke-linejoin="round" vector-effect="non-scaling-stroke"/><polygon points="257.61,56.96 257.61,47.69 234.29,50.36 234.29,59.62" fill="#c1cabc" stroke="#1c211e" stroke-opacity=".68" stroke-width="1.35" stroke-linejoin="round" vector-effect="non-scaling-stroke"/><polygon points="498.66,326.39 455.07,310.91 394.72,317.81 438.31,333.29" fill="#3e474d" stroke="#1c211e" stroke-opacity=".68" stroke-width="1.35" stroke-linejoin="round" vector-effect="non-scaling-stroke"/><polygon points="462.96,199.01 442.72,191.83 407.06,195.91 427.30,203.09" fill="#92a191" stroke="#1c211e" stroke-opacity=".68" stroke-width="1.35" stroke-linejoin="round" vector-effect="non-scaling-stroke"/><polygon points="427.30,292.69 427.30,203.09 407.06,195.91 407.06,285.51" fill="#758174" stroke="#1c211e" stroke-opacity=".68" stroke-width="1.35" stroke-linejoin="round" vector-effect="non-scaling-stroke"/><polygon points="469.23,300.62 469.23,269.72 422.59,275.06 422.59,305.95" fill="#798380" stroke="#1c211e" stroke-opacity=".68" stroke-width="1.35" stroke-linejoin="round" vector-effect="non-scaling-stroke"/><polygon points="466.85,327.07 466.85,293.08 431.19,297.16 431.19,331.15" fill="#c1cabc" stroke="#1c211e" stroke-opacity=".68" stroke-width="1.35" stroke-linejoin="round" vector-effect="non-scaling-stroke"/><polygon points="307.75,272.66 307.75,213.95 198.76,175.27 198.76,233.97" fill="#a4ac9f" stroke="#1c211e" stroke-opacity=".68" stroke-width="1.35" stroke-linejoin="round" vector-effect="non-scaling-stroke"/><polygon points="462.96,288.61 462.96,199.01 427.30,203.09 427.30,292.69" fill="#8b998a" stroke="#1c211e" stroke-opacity=".68" stroke-width="1.35" stroke-linejoin="round" vector-effect="non-scaling-stroke"/><polygon points="486.21,184.48 450.40,171.77 390.04,178.67 425.85,191.38" fill="#92a191" stroke="#1c211e" stroke-opacity=".68" stroke-width="1.35" stroke-linejoin="round" vector-effect="non-scaling-stroke"/><polygon points="438.31,358.00 438.31,333.29 394.72,317.81 394.72,342.53" fill="#30373d" stroke="#1c211e" stroke-opacity=".68" stroke-width="1.35" stroke-linejoin="round" vector-effect="non-scaling-stroke"/><polygon points="425.85,250.08 425.85,191.38 390.04,178.67 390.04,237.37" fill="#758174" stroke="#1c211e" stroke-opacity=".68" stroke-width="1.35" stroke-linejoin="round" vector-effect="non-scaling-stroke"/><polygon points="496.01,332.63 485.12,328.76 465.91,330.96 476.81,334.83" fill="#cbd5c5" stroke="#1c211e" stroke-opacity=".68" stroke-width="1.35" stroke-linejoin="round" vector-effect="non-scaling-stroke"/><polygon points="476.81,351.82 476.81,334.83 465.91,330.96 465.91,347.95" fill="#a4ac9f" stroke="#1c211e" stroke-opacity=".68" stroke-width="1.35" stroke-linejoin="round" vector-effect="non-scaling-stroke"/><polygon points="496.01,349.62 496.01,332.63 476.81,334.83 476.81,351.82" fill="#c1cabc" stroke="#1c211e" stroke-opacity=".68" stroke-width="1.35" stroke-linejoin="round" vector-effect="non-scaling-stroke"/><polygon points="294.55,255.74 294.55,107.44 162.21,60.47 162.21,208.77" fill="#758174" stroke="#1c211e" stroke-opacity=".68" stroke-width="1.35" stroke-linejoin="round" vector-effect="non-scaling-stroke"/><polygon points="498.66,351.10 498.66,326.39 438.31,333.29 438.31,358.00" fill="#3b4349" stroke="#1c211e" stroke-opacity=".68" stroke-width="1.35" stroke-linejoin="round" vector-effect="non-scaling-stroke"/><polygon points="486.21,243.18 486.21,184.48 425.85,191.38 425.85,250.08" fill="#8b998a" stroke="#1c211e" stroke-opacity=".68" stroke-width="1.35" stroke-linejoin="round" vector-effect="non-scaling-stroke"/><polygon points="466.39,336.02 455.49,332.15 436.29,334.34 447.19,338.21" fill="#cbd5c5" stroke="#1c211e" stroke-opacity=".68" stroke-width="1.35" stroke-linejoin="round" vector-effect="non-scaling-stroke"/><polygon points="447.19,355.21 447.19,338.21 436.29,334.34 436.29,351.34" fill="#a4ac9f" stroke="#1c211e" stroke-opacity=".68" stroke-width="1.35" stroke-linejoin="round" vector-effect="non-scaling-stroke"/><polygon points="466.39,353.01 466.39,336.02 447.19,338.21 447.19,355.21" fill="#c1cabc" stroke="#1c211e" stroke-opacity=".68" stroke-width="1.35" stroke-linejoin="round" vector-effect="non-scaling-stroke"/><polygon points="450.40,256.35 450.40,197.64 307.75,213.95 307.75,272.66" fill="#c1cabc" stroke="#1c211e" stroke-opacity=".68" stroke-width="1.35" stroke-linejoin="round" vector-effect="non-scaling-stroke"/><polygon points="329.32,285.72 302.85,276.33 256.22,281.66 282.69,291.05" fill="#808a86" stroke="#1c211e" stroke-opacity=".68" stroke-width="1.35" stroke-linejoin="round" vector-effect="non-scaling-stroke"/><polygon points="326.95,309.08 305.15,301.34 269.49,305.42 291.29,313.16" fill="#cbd5c5" stroke="#1c211e" stroke-opacity=".68" stroke-width="1.35" stroke-linejoin="round" vector-effect="non-scaling-stroke"/><polygon points="491.58,115.84 429.30,93.74 250.99,114.12 313.27,136.23" fill="#92a191" stroke="#1c211e" stroke-opacity=".68" stroke-width="1.35" stroke-linejoin="round" vector-effect="non-scaling-stroke"/><polygon points="282.69,321.95 282.69,291.05 256.22,281.66 256.22,312.55" fill="#666f6c" stroke="#1c211e" stroke-opacity=".68" stroke-width="1.35" stroke-linejoin="round" vector-effect="non-scaling-stroke"/><polygon points="474.18,72.34 460.94,67.64 431.56,63.25 444.80,67.95" fill="#828c89" stroke="#1c211e" stroke-opacity=".68" stroke-width="1.35" stroke-linejoin="round" vector-effect="non-scaling-stroke"/><polygon points="291.29,347.14 291.29,313.16 269.49,305.42 269.49,339.41" fill="#a4ac9f" stroke="#1c211e" stroke-opacity=".68" stroke-width="1.35" stroke-linejoin="round" vector-effect="non-scaling-stroke"/><polygon points="358.76,342.38 315.16,326.91 254.81,333.81 298.41,349.28" fill="#3e474d" stroke="#1c211e" stroke-opacity=".68" stroke-width="1.35" stroke-linejoin="round" vector-effect="non-scaling-stroke"/><polygon points="432.29,129.54 444.80,67.95 431.56,63.25 419.05,124.85" fill="#666f6c" stroke="#1c211e" stroke-opacity=".68" stroke-width="1.35" stroke-linejoin="round" vector-effect="non-scaling-stroke"/><polygon points="323.06,215.01 302.82,207.83 267.16,211.90 287.40,219.09" fill="#92a191" stroke="#1c211e" stroke-opacity=".68" stroke-width="1.35" stroke-linejoin="round" vector-effect="non-scaling-stroke"/><polygon points="287.40,308.69 287.40,219.09 267.16,211.90 267.16,301.50" fill="#758174" stroke="#1c211e" stroke-opacity=".68" stroke-width="1.35" stroke-linejoin="round" vector-effect="non-scaling-stroke"/><polygon points="461.67,133.93 474.18,72.34 444.80,67.95 432.29,129.54" fill="#798380" stroke="#1c211e" stroke-opacity=".68" stroke-width="1.35" stroke-linejoin="round" vector-effect="non-scaling-stroke"/><polygon points="329.32,316.62 329.32,285.72 282.69,291.05 282.69,321.95" fill="#798380" stroke="#1c211e" stroke-opacity=".68" stroke-width="1.35" stroke-linejoin="round" vector-effect="non-scaling-stroke"/><polygon points="326.95,343.07 326.95,309.08 291.29,313.16 291.29,347.14" fill="#c1cabc" stroke="#1c211e" stroke-opacity=".68" stroke-width="1.35" stroke-linejoin="round" vector-effect="non-scaling-stroke"/><polygon points="463.19,121.79 463.19,83.17 448.10,84.90 448.10,123.52" fill="#c1cabc" stroke="#1c211e" stroke-opacity=".68" stroke-width="1.35" stroke-linejoin="round" vector-effect="non-scaling-stroke"/><polygon points="463.19,83.17 460.07,82.07 444.99,83.79 448.10,84.90" fill="#cbd5c5" stroke="#1c211e" stroke-opacity=".68" stroke-width="1.35" stroke-linejoin="round" vector-effect="non-scaling-stroke"/><polygon points="448.10,123.52 448.10,84.90 444.99,83.79 444.99,122.41" fill="#a4ac9f" stroke="#1c211e" stroke-opacity=".68" stroke-width="1.35" stroke-linejoin="round" vector-effect="non-scaling-stroke"/><polygon points="323.06,304.61 323.06,215.01 287.40,219.09 287.40,308.69" fill="#8b998a" stroke="#1c211e" stroke-opacity=".68" stroke-width="1.35" stroke-linejoin="round" vector-effect="non-scaling-stroke"/><polygon points="452.40,130.77 415.03,117.51 313.53,129.11 350.90,142.37" fill="#92a191" stroke="#1c211e" stroke-opacity=".68" stroke-width="1.35" stroke-linejoin="round" vector-effect="non-scaling-stroke"/><polygon points="346.30,200.47 310.49,187.76 250.14,194.66 285.95,207.38" fill="#92a191" stroke="#1c211e" stroke-opacity=".68" stroke-width="1.35" stroke-linejoin="round" vector-effect="non-scaling-stroke"/><polygon points="298.41,374.00 298.41,349.28 254.81,333.81 254.81,358.53" fill="#30373d" stroke="#1c211e" stroke-opacity=".68" stroke-width="1.35" stroke-linejoin="round" vector-effect="non-scaling-stroke"/><polygon points="483.83,234.10 483.83,85.80 294.55,107.44 294.55,255.74" fill="#8b998a" stroke="#1c211e" stroke-opacity=".68" stroke-width="1.35" stroke-linejoin="round" vector-effect="non-scaling-stroke"/><polygon points="285.95,266.08 285.95,207.38 250.14,194.66 250.14,253.37" fill="#758174" stroke="#1c211e" stroke-opacity=".68" stroke-width="1.35" stroke-linejoin="round" vector-effect="non-scaling-stroke"/><polygon points="356.11,348.63 345.21,344.76 326.01,346.95 336.91,350.82" fill="#cbd5c5" stroke="#1c211e" stroke-opacity=".68" stroke-width="1.35" stroke-linejoin="round" vector-effect="non-scaling-stroke"/><polygon points="500.22,173.62 465.97,161.46 433.05,165.22 467.30,177.38" fill="#92a191" stroke="#1c211e" stroke-opacity=".68" stroke-width="1.35" stroke-linejoin="round" vector-effect="non-scaling-stroke"/><polygon points="336.91,367.82 336.91,350.82 326.01,346.95 326.01,363.95" fill="#a4ac9f" stroke="#1c211e" stroke-opacity=".68" stroke-width="1.35" stroke-linejoin="round" vector-effect="non-scaling-stroke"/><polygon points="467.30,226.82 467.30,177.38 433.05,165.22 433.05,214.66" fill="#758174" stroke="#1c211e" stroke-opacity=".68" stroke-width="1.35" stroke-linejoin="round" vector-effect="non-scaling-stroke"/><polygon points="350.90,238.15 350.90,142.37 313.53,129.11 313.53,224.89" fill="#758174" stroke="#1c211e" stroke-opacity=".68" stroke-width="1.35" stroke-linejoin="round" vector-effect="non-scaling-stroke"/><polygon points="356.11,365.62 356.11,348.63 336.91,350.82 336.91,367.82" fill="#c1cabc" stroke="#1c211e" stroke-opacity=".68" stroke-width="1.35" stroke-linejoin="round" vector-effect="non-scaling-stroke"/><polygon points="313.27,259.81 313.27,136.23 250.99,114.12 250.99,237.71" fill="#758174" stroke="#1c211e" stroke-opacity=".68" stroke-width="1.35" stroke-linejoin="round" vector-effect="non-scaling-stroke"/><polygon points="358.76,367.10 358.76,342.38 298.41,349.28 298.41,374.00" fill="#3b4349" stroke="#1c211e" stroke-opacity=".68" stroke-width="1.35" stroke-linejoin="round" vector-effect="non-scaling-stroke"/><polygon points="452.40,226.55 452.40,130.77 350.90,142.37 350.90,238.15" fill="#8b998a" stroke="#1c211e" stroke-opacity=".68" stroke-width="1.35" stroke-linejoin="round" vector-effect="non-scaling-stroke"/><polygon points="491.58,239.42 491.58,115.84 313.27,136.23 313.27,259.81" fill="#8b998a" stroke="#1c211e" stroke-opacity=".68" stroke-width="1.35" stroke-linejoin="round" vector-effect="non-scaling-stroke"/><polygon points="346.30,259.18 346.30,200.47 285.95,207.38 285.95,266.08" fill="#8b998a" stroke="#1c211e" stroke-opacity=".68" stroke-width="1.35" stroke-linejoin="round" vector-effect="non-scaling-stroke"/><polygon points="326.48,352.01 315.58,348.15 296.38,350.34 307.28,354.21" fill="#cbd5c5" stroke="#1c211e" stroke-opacity=".68" stroke-width="1.35" stroke-linejoin="round" vector-effect="non-scaling-stroke"/><polygon points="307.28,371.20 307.28,354.21 296.38,350.34 296.38,367.33" fill="#a4ac9f" stroke="#1c211e" stroke-opacity=".68" stroke-width="1.35" stroke-linejoin="round" vector-effect="non-scaling-stroke"/><polygon points="326.48,369.01 326.48,352.01 307.28,354.21 307.28,371.20" fill="#c1cabc" stroke="#1c211e" stroke-opacity=".68" stroke-width="1.35" stroke-linejoin="round" vector-effect="non-scaling-stroke"/><polygon points="500.22,223.05 500.22,173.62 467.30,177.38 467.30,226.82" fill="#8b998a" stroke="#1c211e" stroke-opacity=".68" stroke-width="1.35" stroke-linejoin="round" vector-effect="non-scaling-stroke"/><polygon points="494.32,133.68 446.06,116.55 319.87,130.97 368.14,148.11" fill="#92a191" stroke="#1c211e" stroke-opacity=".68" stroke-width="1.35" stroke-linejoin="round" vector-effect="non-scaling-stroke"/><polygon points="493.89,155.93 486.88,153.45 463.43,156.13 470.43,158.61" fill="#3e474d" stroke="#1c211e" stroke-opacity=".68" stroke-width="1.35" stroke-linejoin="round" vector-effect="non-scaling-stroke"/><polygon points="326.84,149.35 314.33,90.61 301.09,85.92 313.60,144.65" fill="#666f6c" stroke="#1c211e" stroke-opacity=".68" stroke-width="1.35" stroke-linejoin="round" vector-effect="non-scaling-stroke"/><polygon points="493.89,181.47 493.89,155.93 470.43,158.61 470.43,184.15" fill="#3b4349" stroke="#1c211e" stroke-opacity=".68" stroke-width="1.35" stroke-linejoin="round" vector-effect="non-scaling-stroke"/><polygon points="470.43,184.15 470.43,158.61 463.43,156.13 463.43,181.66" fill="#30373d" stroke="#1c211e" stroke-opacity=".68" stroke-width="1.35" stroke-linejoin="round" vector-effect="non-scaling-stroke"/><polygon points="343.71,79.51 330.48,74.81 301.09,85.92 314.33,90.61" fill="#7d8783" stroke="#1c211e" stroke-opacity=".68" stroke-width="1.35" stroke-linejoin="round" vector-effect="non-scaling-stroke"/><polygon points="356.22,138.24 343.71,79.51 314.33,90.61 326.84,149.35" fill="#798380" stroke="#1c211e" stroke-opacity=".68" stroke-width="1.35" stroke-linejoin="round" vector-effect="non-scaling-stroke"/><polygon points="493.87,161.72 488.42,159.79 472.79,161.58 478.24,163.51" fill="#d8b984" stroke="#1c211e" stroke-opacity=".68" stroke-width="1.35" stroke-linejoin="round" vector-effect="non-scaling-stroke"/><polygon points="478.24,181.12 478.24,163.51 472.79,161.58 472.79,179.19" fill="#af9569" stroke="#1c211e" stroke-opacity=".68" stroke-width="1.35" stroke-linejoin="round" vector-effect="non-scaling-stroke"/><polygon points="493.87,179.33 493.87,161.72 478.24,163.51 478.24,181.12" fill="#ceb07d" stroke="#1c211e" stroke-opacity=".68" stroke-width="1.35" stroke-linejoin="round" vector-effect="non-scaling-stroke"/><polygon points="345.23,135.28 345.23,96.66 330.14,98.38 330.14,137.00" fill="#c1cabc" stroke="#1c211e" stroke-opacity=".68" stroke-width="1.35" stroke-linejoin="round" vector-effect="non-scaling-stroke"/><polygon points="345.23,96.66 342.12,95.55 327.03,97.28 330.14,98.38" fill="#cbd5c5" stroke="#1c211e" stroke-opacity=".68" stroke-width="1.35" stroke-linejoin="round" vector-effect="non-scaling-stroke"/><polygon points="330.14,137.00 330.14,98.38 327.03,97.28 327.03,135.90" fill="#a4ac9f" stroke="#1c211e" stroke-opacity=".68" stroke-width="1.35" stroke-linejoin="round" vector-effect="non-scaling-stroke"/><polygon points="491.75,165.92 488.64,164.81 482.07,165.56 485.18,166.67" fill="#1f2a35" stroke="#1c211e" stroke-opacity=".68" stroke-width="1.35" stroke-linejoin="round" vector-effect="non-scaling-stroke"/><polygon points="485.18,178.64 485.18,166.67 482.07,165.56 482.07,177.54" fill="#172029" stroke="#1c211e" stroke-opacity=".68" stroke-width="1.35" stroke-linejoin="round" vector-effect="non-scaling-stroke"/><polygon points="491.75,177.89 491.75,165.92 485.18,166.67 485.18,178.64" fill="#1d2832" stroke="#1c211e" stroke-opacity=".68" stroke-width="1.35" stroke-linejoin="round" vector-effect="non-scaling-stroke"/><polygon points="494.56,166.96 492.69,166.29 489.25,166.69 491.12,167.35" fill="#e8e6d4" stroke="#1c211e" stroke-opacity=".68" stroke-width="1.35" stroke-linejoin="round" vector-effect="non-scaling-stroke"/><polygon points="491.12,170.87 491.12,167.35 489.25,166.69 489.25,170.21" fill="#bbbaab" stroke="#1c211e" stroke-opacity=".68" stroke-width="1.35" stroke-linejoin="round" vector-effect="non-scaling-stroke"/><polygon points="494.56,170.48 494.56,166.96 491.12,167.35 491.12,170.87" fill="#dcdbc9" stroke="#1c211e" stroke-opacity=".68" stroke-width="1.35" stroke-linejoin="round" vector-effect="non-scaling-stroke"/><polygon points="498.03,124.31 471.56,114.91 342.63,129.66 369.10,139.05" fill="#808a86" stroke="#1c211e" stroke-opacity=".68" stroke-width="1.35" stroke-linejoin="round" vector-effect="non-scaling-stroke"/><polygon points="486.76,236.04 455.62,224.99 378.81,233.77 409.95,244.82" fill="#808a86" stroke="#1c211e" stroke-opacity=".68" stroke-width="1.35" stroke-linejoin="round" vector-effect="non-scaling-stroke"/><polygon points="368.14,240.79 368.14,148.11 319.87,130.97 319.87,223.66" fill="#758174" stroke="#1c211e" stroke-opacity=".68" stroke-width="1.35" stroke-linejoin="round" vector-effect="non-scaling-stroke"/><polygon points="390.49,186.16 356.24,174.01 323.32,177.77 357.57,189.93" fill="#92a191" stroke="#1c211e" stroke-opacity=".68" stroke-width="1.35" stroke-linejoin="round" vector-effect="non-scaling-stroke"/><polygon points="494.32,226.37 494.32,133.68 368.14,148.11 368.14,240.79" fill="#8b998a" stroke="#1c211e" stroke-opacity=".68" stroke-width="1.35" stroke-linejoin="round" vector-effect="non-scaling-stroke"/><polygon points="357.57,239.36 357.57,189.93 323.32,177.77 323.32,227.20" fill="#758174" stroke="#1c211e" stroke-opacity=".68" stroke-width="1.35" stroke-linejoin="round" vector-effect="non-scaling-stroke"/><polygon points="495.77,194.44 464.63,183.39 371.36,194.05 402.50,205.10" fill="#cbd5c5" stroke="#1c211e" stroke-opacity=".68" stroke-width="1.35" stroke-linejoin="round" vector-effect="non-scaling-stroke"/><polygon points="409.95,264.91 409.95,244.82 378.81,233.77 378.81,253.85" fill="#666f6c" stroke="#1c211e" stroke-opacity=".68" stroke-width="1.35" stroke-linejoin="round" vector-effect="non-scaling-stroke"/><polygon points="477.78,226.35 469.22,223.31 445.90,225.98 454.47,229.02" fill="#e8e6d4" stroke="#1c211e" stroke-opacity=".68" stroke-width="1.35" stroke-linejoin="round" vector-effect="non-scaling-stroke"/><polygon points="498.03,147.48 498.03,124.31 369.10,139.05 369.10,162.22" fill="#798380" stroke="#1c211e" stroke-opacity=".68" stroke-width="1.35" stroke-linejoin="round" vector-effect="non-scaling-stroke"/><polygon points="454.47,249.10 454.47,229.02 445.90,225.98 445.90,246.06" fill="#bbbaab" stroke="#1c211e" stroke-opacity=".68" stroke-width="1.35" stroke-linejoin="round" vector-effect="non-scaling-stroke"/><polygon points="486.76,256.12 486.76,236.04 409.95,244.82 409.95,264.91" fill="#798380" stroke="#1c211e" stroke-opacity=".68" stroke-width="1.35" stroke-linejoin="round" vector-effect="non-scaling-stroke"/><polygon points="477.78,246.43 477.78,226.35 454.47,229.02 454.47,249.10" fill="#dcdbc9" stroke="#1c211e" stroke-opacity=".68" stroke-width="1.35" stroke-linejoin="round" vector-effect="non-scaling-stroke"/><polygon points="390.49,235.60 390.49,186.16 357.57,189.93 357.57,239.36" fill="#8b998a" stroke="#1c211e" stroke-opacity=".68" stroke-width="1.35" stroke-linejoin="round" vector-effect="non-scaling-stroke"/><polygon points="402.50,257.63 402.50,205.10 371.36,194.05 371.36,246.57" fill="#a4ac9f" stroke="#1c211e" stroke-opacity=".68" stroke-width="1.35" stroke-linejoin="round" vector-effect="non-scaling-stroke"/><polygon points="495.77,246.96 495.77,194.44 402.50,205.10 402.50,257.63" fill="#c1cabc" stroke="#1c211e" stroke-opacity=".68" stroke-width="1.35" stroke-linejoin="round" vector-effect="non-scaling-stroke"/><polygon points="369.10,162.22 369.10,139.05 342.63,129.66 342.63,152.83" fill="#666f6c" stroke="#1c211e" stroke-opacity=".68" stroke-width="1.35" stroke-linejoin="round" vector-effect="non-scaling-stroke"/><polygon points="449.25,229.61 440.69,226.58 417.37,229.24 425.94,232.28" fill="#e8e6d4" stroke="#1c211e" stroke-opacity=".68" stroke-width="1.35" stroke-linejoin="round" vector-effect="non-scaling-stroke"/><polygon points="396.23,167.10 389.22,164.61 365.77,167.29 372.78,169.78" fill="#3e474d" stroke="#1c211e" stroke-opacity=".68" stroke-width="1.35" stroke-linejoin="round" vector-effect="non-scaling-stroke"/><polygon points="481.39,200.66 475.17,198.45 420.30,204.73 426.53,206.94" fill="#3e474d" stroke="#1c211e" stroke-opacity=".68" stroke-width="1.35" stroke-linejoin="round" vector-effect="non-scaling-stroke"/><polygon points="396.23,192.63 396.23,167.10 372.78,169.78 372.78,195.32" fill="#3b4349" stroke="#1c211e" stroke-opacity=".68" stroke-width="1.35" stroke-linejoin="round" vector-effect="non-scaling-stroke"/><polygon points="425.94,252.36 425.94,232.28 417.37,229.24 417.37,249.32" fill="#bbbaab" stroke="#1c211e" stroke-opacity=".68" stroke-width="1.35" stroke-linejoin="round" vector-effect="non-scaling-stroke"/><polygon points="372.78,195.32 372.78,169.78 365.77,167.29 365.77,192.83" fill="#30373d" stroke="#1c211e" stroke-opacity=".68" stroke-width="1.35" stroke-linejoin="round" vector-effect="non-scaling-stroke"/><polygon points="449.25,249.70 449.25,229.61 425.94,232.28 425.94,252.36" fill="#dcdbc9" stroke="#1c211e" stroke-opacity=".68" stroke-width="1.35" stroke-linejoin="round" vector-effect="non-scaling-stroke"/><polygon points="481.39,217.66 481.39,200.66 426.53,206.94 426.53,223.93" fill="#3b4349" stroke="#1c211e" stroke-opacity=".68" stroke-width="1.35" stroke-linejoin="round" vector-effect="non-scaling-stroke"/><polygon points="396.21,172.89 390.76,170.96 375.13,172.74 380.58,174.68" fill="#d8b984" stroke="#1c211e" stroke-opacity=".68" stroke-width="1.35" stroke-linejoin="round" vector-effect="non-scaling-stroke"/><polygon points="380.58,192.29 380.58,174.68 375.13,172.74 375.13,190.35" fill="#af9569" stroke="#1c211e" stroke-opacity=".68" stroke-width="1.35" stroke-linejoin="round" vector-effect="non-scaling-stroke"/><polygon points="396.21,190.50 396.21,172.89 380.58,174.68 380.58,192.29" fill="#ceb07d" stroke="#1c211e" stroke-opacity=".68" stroke-width="1.35" stroke-linejoin="round" vector-effect="non-scaling-stroke"/><polygon points="394.09,177.08 390.98,175.98 384.41,176.73 387.52,177.83" fill="#1f2a35" stroke="#1c211e" stroke-opacity=".68" stroke-width="1.35" stroke-linejoin="round" vector-effect="non-scaling-stroke"/><polygon points="387.52,189.81 387.52,177.83 384.41,176.73 384.41,188.70" fill="#172029" stroke="#1c211e" stroke-opacity=".68" stroke-width="1.35" stroke-linejoin="round" vector-effect="non-scaling-stroke"/><polygon points="394.09,189.06 394.09,177.08 387.52,177.83 387.52,189.81" fill="#1d2832" stroke="#1c211e" stroke-opacity=".68" stroke-width="1.35" stroke-linejoin="round" vector-effect="non-scaling-stroke"/><polygon points="396.90,178.12 395.03,177.46 391.59,177.85 393.46,178.52" fill="#e8e6d4" stroke="#1c211e" stroke-opacity=".68" stroke-width="1.35" stroke-linejoin="round" vector-effect="non-scaling-stroke"/><polygon points="393.46,182.04 393.46,178.52 391.59,177.85 391.59,181.38" fill="#bbbaab" stroke="#1c211e" stroke-opacity=".68" stroke-width="1.35" stroke-linejoin="round" vector-effect="non-scaling-stroke"/><polygon points="426.53,223.93 426.53,206.94 420.30,204.73 420.30,221.72" fill="#30373d" stroke="#1c211e" stroke-opacity=".68" stroke-width="1.35" stroke-linejoin="round" vector-effect="non-scaling-stroke"/><polygon points="396.90,181.65 396.90,178.12 393.46,178.52 393.46,182.04" fill="#dcdbc9" stroke="#1c211e" stroke-opacity=".68" stroke-width="1.35" stroke-linejoin="round" vector-effect="non-scaling-stroke"/></g>
</svg>